# xmcd
#
# Track frame offsets: 
#        150
#        12963
#        26630
#        39245
#        51813
#        63782
#        77266
#        90283
#        102647
#        115443
#        127459
#        139693
#        153740
#        166674
#        178435
#        190675
#        204419
#        215770
#        227977
#        241833
#        253323
#        266143
#        279505
#
# Disc length: 3860 seconds
#
# Revision: 1
# Processed by: cddbd v1.5.2PL0 Copyright (c) Steve Scherf et al.
# Submitted via: ExactAudioCopy v1.0b3
#
DISCID=4c0f1217
DTITLE=Various Artist - Roots Of Ska - USA Jamaica 1942-1962 [CD1]
DYEAR=2013
DGENRE=Blues
TTITLE0=Louis Jordan - It's A Low-Down Dirty Shame
TTITLE1=Louis Jordan - G.I. Jive - Louis Jordan
TTITLE2=Louis Jordan - Choo Choo Ch'Boogie - Louis Jordan
TTITLE3=Louis Jordan - Boogie Woogie Blue Plate - Louis Jourdan
TTITLE4=Gene Philips - Rock Bottom
TTITLE5=T-Bone Walker - T-Bone Shuffle
TTITLE6=Gene Coy - Killer Diller (Milk Lane Hop)
TTITLE7=Louis Jordan - Reet Petite And Gone
TTITLE8=Professor Longhair - Willie Mae
TTITLE9=Todd Rhodes - Page Boy Shuffle
TTITLE10=Jimmy Witherspoon - Spoon Calls Hootie
TTITLE11=The Robins - If It's So Baby
TTITLE12=Floyd Dixon - Rockin' At Home
TTITLE13=The Johnny Otis Show - Boogie Guitar (Three Guitars)
TTITLE14=Harold Land - San Diego Bounce (Coxsone Shuffle)
TTITLE15=Professor Longhair - Been Fooling Around
TTITLE16=Archibald - Stack-A-Lee (Part 2)
TTITLE17=Willis Gator Jackson - Later For The Gator (Coxsone Hop)
TTITLE18=T-Bone Walker - Street Walkin' Woman
TTITLE19=James Wee Willie Wayne - Tend To Do Business
TTITLE20=Roy Brown - Train Time Blues
TTITLE21=Rosco Gordon - No More Doggin'
TTITLE22=Dave Bartholomew - My Ding-A-Ling
EXTD=YEAR: 2013
EXTT0=
EXTT1=
EXTT2=
EXTT3=
EXTT4=
EXTT5=
EXTT6=
EXTT7=
EXTT8=
EXTT9=
EXTT10=
EXTT11=
EXTT12=
EXTT13=
EXTT14=
EXTT15=
EXTT16=
EXTT17=
EXTT18=
EXTT19=
EXTT20=
EXTT21=
EXTT22=
PLAYORDER=
